<?xml version="1.0" encoding="UTF-8"?>
<svg width="500px" height="500px" viewBox="0 0 500 500" version="1.1" xmlns="http://www.w3.org/2000/svg" xmlns:xlink="http://www.w3.org/1999/xlink">
    <!-- Generator: Sketch 54.1 (76490) - https://sketchapp.com -->
    <title>Artboard Copy 2</title>
    <desc>Created with Sketch.</desc>
    <defs>
        <path d="M428.571429,214.285714 C428.571429,332.631902 332.631902,428.571429 214.285714,428.571429 C95.9395267,428.571429 0,332.631902 0,214.285714 C0,95.9395267 95.9395267,0 214.285714,0 C332.631902,0 428.571429,95.9395267 428.571429,214.285714 Z M387.344435,214.285714 C387.344435,188.645048 378.136722,166.467134 359.823839,148.248904 C352.396144,140.826468 344.379492,134.984224 335.663453,130.530237 L335.663453,88.0569676 L276.260298,88.0569676 L276.260298,122.311131 C266.363716,124.19106 256.164768,127.956179 246.75986,133.398773 C233.195443,141.320771 222.304996,151.716915 214.185802,164.7844 C206.066608,151.617003 195.278703,141.220859 181.811569,133.398773 C170.921122,127.064855 159.436459,123.102542 147.557406,121.51972 L147.557406,88.0569676 L88.1542507,88.0569676 L88.1542507,133.104294 C81.3234005,137.161262 74.7896582,142.209465 68.7502191,148.248904 C50.5319895,166.467134 41.2269939,188.742331 41.2269939,214.285714 C41.2269939,239.92901 50.4347064,262.106924 68.7502191,280.319895 C74.7896582,286.359334 81.2261174,291.410167 88.1542507,295.369851 L88.1542507,339.525855 L147.557406,339.525855 L147.557406,307.845749 L202.998247,307.845749 L202.998247,211.811569 L146.56617,211.811569 L146.56617,251.411043 L134.884312,251.411043 C124.588081,251.411043 115.874671,247.948291 108.452235,240.523225 C101.02454,233.09553 97.3619632,224.484663 97.3619632,214.185802 C97.3619632,203.889571 101.02454,194.978966 108.452235,187.851008 C115.874671,180.72305 124.588081,177.060473 134.884312,177.060473 C148.645925,177.060473 160.824715,184.188431 167.358457,195.870289 L214.285714,168.843996 L261.2156,195.870289 C267.846626,184.288344 280.025416,177.060473 293.687117,177.060473 C303.983348,177.060473 312.696757,180.72305 320.121823,187.851008 C327.546889,194.978966 331.209465,203.989483 331.209465,214.285714 C331.209465,224.581946 327.546889,233.09553 320.121823,240.523225 C312.696757,247.948291 303.983348,251.411043 293.687117,251.411043 L281.311131,251.411043 L281.311131,211.811569 L225.86766,211.811569 L225.86766,307.84312 L276.36021,307.84312 L276.36021,340.51709 L335.763365,340.51709 L335.763365,298.041192 C344.476775,293.587204 352.493427,287.744961 359.921122,280.319895 C378.136722,262.106924 387.344435,239.92901 387.344435,214.285714 Z" id="path-1"></path>
        <filter x="-3.3%" y="-1.6%" width="106.5%" height="106.5%" filterUnits="objectBoundingBox" id="filter-2">
            <feOffset dx="0" dy="7" in="SourceAlpha" result="shadowOffsetOuter1"></feOffset>
            <feGaussianBlur stdDeviation="3.5" in="shadowOffsetOuter1" result="shadowBlurOuter1"></feGaussianBlur>
            <feColorMatrix values="0 0 0 0 0   0 0 0 0 0   0 0 0 0 0  0 0 0 0.239264642 0" type="matrix" in="shadowBlurOuter1"></feColorMatrix>
        </filter>
    </defs>
    <g id="Artboard-Copy-2" stroke="none" stroke-width="1" fill="none" fill-rule="evenodd">
        <rect fill="#FFFFFF" x="0" y="0" width="500" height="500"></rect>
        <g id="logo" transform="translate(35.714286, 35.714286)">
            <g id="Combined-Shape">
                <use fill="black" fill-opacity="1" filter="url(#filter-2)" xlink:href="#path-1"></use>
                <use fill="#236AEE" fill-rule="evenodd" xlink:href="#path-1"></use>
            </g>
        </g>
    </g>
</svg>